HIERARCHY
ROOT hip
{
  OFFSET 0 0 0
  CHANNELS 6 Xposition Yposition Zposition Zrotation Yrotation Xrotation
  JOINT abdomen
  {
    OFFSET 0 20.6881 -0.73152
    CHANNELS 3 Zrotation Xrotation Yrotation
    JOINT chest
    {
      OFFSET 0 11.7043 -0.48768
      CHANNELS 3 Zrotation Xrotation Yrotation
      JOINT neck
      {
        OFFSET 0 22.1894 -2.19456
        CHANNELS 3 Zrotation Xrotation Yrotation
        JOINT head
        {
          OFFSET -0.24384 7.07133 1.2192
          CHANNELS 3 Zrotation Xrotation Yrotation
          JOINT leftEye
          {
            OFFSET 4.14528 8.04674 8.04672
            CHANNELS 3 Zrotation Xrotation Yrotation
            End Site
            {
              OFFSET 1 0 0
            }
          }
          JOINT rightEye
          {
            OFFSET -3.6576 8.04674 8.04672
            CHANNELS 3 Zrotation Xrotation Yrotation
            End Site
            {
              OFFSET 1 0 0
            }
          }
        }
      }
      JOINT rCollar
      {
        OFFSET -2.68224 19.2634 -4.8768
        CHANNELS 3 Zrotation Xrotation Yrotation
        JOINT rShldr
        {
          OFFSET -8.77824 -1.95073 1.46304
          CHANNELS 3 Zrotation Xrotation Yrotation
          JOINT rForeArm
          {
            OFFSET -28.1742 -1.7115 0.48768
            CHANNELS 3 Zrotation Xrotation Yrotation
            JOINT rHand
            {
              OFFSET -22.5879 0.773209 7.07136
              CHANNELS 3 Zrotation Xrotation Yrotation
              JOINT rThumb1
              {
                OFFSET -1.2192 -0.487915 3.41376
                CHANNELS 3 Zrotation Xrotation Yrotation
                JOINT rThumb2
                {
                  OFFSET -3.37035 -0.52449 3.41376
                  CHANNELS 3 Zrotation Xrotation Yrotation
                  End Site
                  {
                    OFFSET -1.78271 -1.18214 1.43049
                  }
                }
              }
              JOINT rIndex1
              {
                OFFSET -7.75947 0.938293 5.60832
                CHANNELS 3 Zrotation Xrotation Yrotation
                JOINT rIndex2
                {
                  OFFSET -2.54057 -0.884171 1.56538
                  CHANNELS 3 Zrotation Xrotation Yrotation
                  End Site
                  {
                    OFFSET -1.62519 -0.234802 1.16502
                  }
                }
              }
              JOINT rMid1
              {
                OFFSET -8.24714 1.18213 3.41376
                CHANNELS 3 Zrotation Xrotation Yrotation
                JOINT rMid2
                {
                  OFFSET -3.10165 -0.590103 1.0647
                  CHANNELS 3 Zrotation Xrotation Yrotation
                  End Site
                  {
                    OFFSET -2.48547 -0.328903 0.83742
                  }
                }
              }
              JOINT rRing1
              {
                OFFSET -8.82822 0.546677 1.51678
                CHANNELS 3 Zrotation Xrotation Yrotation
                JOINT rRing2
                {
                  OFFSET -2.60934 -0.819778 -0.0198488
                  CHANNELS 3 Zrotation Xrotation Yrotation
                  End Site
                  {
                    OFFSET -2.33842 -0.294052 0.168128
                  }
                }
              }
              JOINT rPinky1
              {
                OFFSET -8.27202 -0.0477905 -0.4584
                CHANNELS 3 Zrotation Xrotation Yrotation
                JOINT rPinky2
                {
                  OFFSET -1.82734 -0.647385 -0.700984
                  CHANNELS 3 Zrotation Xrotation Yrotation
                  End Site
                  {
                    OFFSET -1.69225 -0.51767 -0.607171
                  }
                }
              }
            }
          }
        }
      }
      JOINT lCollar
      {
        OFFSET 2.68224 19.2634 -4.8768
        CHANNELS 3 Zrotation Xrotation Yrotation
        JOINT lShldr
        {
          OFFSET 8.77824 -1.95073 1.46304
          CHANNELS 3 Zrotation Xrotation Yrotation
          JOINT lForeArm
          {
            OFFSET 28.1742 -1.7115 0.48768
            CHANNELS 3 Zrotation Xrotation Yrotation
            JOINT lHand
            {
              OFFSET 22.5879 0.773209 7.07136
              CHANNELS 3 Zrotation Xrotation Yrotation
              JOINT lThumb1
              {
                OFFSET 1.2192 -0.487915 3.41376
                CHANNELS 3 Zrotation Xrotation Yrotation
                JOINT lThumb2
                {
                  OFFSET 3.37035 -0.52449 3.41376
                  CHANNELS 3 Zrotation Xrotation Yrotation
                  End Site
                  {
                    OFFSET 1.78271 -1.18214 1.43049
                  }
                }
              }
              JOINT lIndex1
              {
                OFFSET 7.75947 0.938293 5.60832
                CHANNELS 3 Zrotation Xrotation Yrotation
                JOINT lIndex2
                {
                  OFFSET 2.54057 -0.884171 1.56538
                  CHANNELS 3 Zrotation Xrotation Yrotation
                  End Site
                  {
                    OFFSET 1.62519 -0.234802 1.16502
                  }
                }
              }
              JOINT lMid1
              {
                OFFSET 8.24714 1.18213 3.41376
                CHANNELS 3 Zrotation Xrotation Yrotation
                JOINT lMid2
                {
                  OFFSET 3.10165 -0.590103 1.0647
                  CHANNELS 3 Zrotation Xrotation Yrotation
                  End Site
                  {
                    OFFSET 2.48547 -0.328903 0.83742
                  }
                }
              }
              JOINT lRing1
              {
                OFFSET 8.82822 0.546677 1.51678
                CHANNELS 3 Zrotation Xrotation Yrotation
                JOINT lRing2
                {
                  OFFSET 2.60934 -0.819778 -0.0198488
                  CHANNELS 3 Zrotation Xrotation Yrotation
                  End Site
                  {
                    OFFSET 2.33842 -0.294052 0.168128
                  }
                }
              }
              JOINT lPinky1
              {
                OFFSET 8.27202 -0.0477905 -0.4584
                CHANNELS 3 Zrotation Xrotation Yrotation
                JOINT lPinky2
                {
                  OFFSET 1.82734 -0.647385 -0.700984
                  CHANNELS 3 Zrotation Xrotation Yrotation
                  End Site
                  {
                    OFFSET 1.69225 -0.51767 -0.607171
                  }
                }
              }
            }
          }
        }
      }
    }
  }
  JOINT rButtock
  {
    OFFSET -8.77824 4.35084 1.2192
    CHANNELS 3 Zrotation Xrotation Yrotation
    JOINT rThigh
    {
      OFFSET 0 -1.70687 -2.19456
      CHANNELS 3 Zrotation Xrotation Yrotation
      JOINT rShin
      {
        OFFSET 0 -36.8199 0.73152
        CHANNELS 3 Zrotation Xrotation Yrotation
        JOINT rFoot
        {
          OFFSET 0.73152 -45.1104 -5.12064
          CHANNELS 3 Zrotation Xrotation Yrotation
          End Site
          {
            OFFSET -1.1221 -3.69964 12.103
          }
        }
      }
    }
  }
  JOINT lButtock
  {
    OFFSET 8.77824 4.35084 1.2192
    CHANNELS 3 Zrotation Xrotation Yrotation
    JOINT lThigh
    {
      OFFSET 0 -1.70687 -2.19456
      CHANNELS 3 Zrotation Xrotation Yrotation
      JOINT lShin
      {
        OFFSET 0 -36.8199 0.73152
        CHANNELS 3 Zrotation Xrotation Yrotation
        JOINT lFoot
        {
          OFFSET -0.73152 -45.1104 -5.12064
          CHANNELS 3 Zrotation Xrotation Yrotation
          End Site
          {
            OFFSET 1.1221 -3.69964 12.103
          }
        }
      }
    }
  }
}
MOTION
Frames:	4
Frame Time:	0.03333
0.05337674775477944 30.872571161673523 1.3773905688984633 3.338899850845337 -6.044899940490723 10.470598220825195 -13.92199993133545 16.84000015258789 6.8347697257995605 3.099449872970581 -10.514598846435547 1.5762298107147217 -5.133169651031494 13.129798889160156 -2.6087000370025635 10.230598449707031 -35.68100357055664 -1.7589199542999268 -0.0 0.0 -0.0 -0.0 0.0 -0.0 7.633330816395056e-14 -3.4349988673777754e-13 1.6538883435522622e-13 -0.13127301633358002 9.43442153930664 92.69389343261719 -28.138898849487305 -31.552196502685547 69.76359558105469 -0.3964199721813202 -17.64259910583496 -2.56184983253479 7.580152061592571e-10 1.0628014024405275e-09 3.6490184207593757e-09 1.252158821074545e-09 1.7934002061181786e-09 6.31885832547141e-09 7.58040630266521e-10 1.0628014024405275e-09 3.648999324923352e-09 7.7309088706970215 5.474880218505859 0.41731396317481995 7.580152061592571e-10 1.0627886348757443e-09 3.6490184207593757e-09 2.9055399894714355 0.9651829600334167 0.10290198773145676 7.580152061592571e-10 1.0627886348757443e-09 3.6490184207593757e-09 10.27859878540039 0.73180091381073 0.025912299752235413 7.580152061592571e-10 1.0627886348757443e-09 3.6490184207593757e-09 2.2216696739196777 -0.7334870100021362 -0.2089199721813202 7.633330816395056e-14 -3.4349988673777754e-13 1.6538883435522622e-13 -28.256397247314453 24.730302810668945 -80.72249603271484 11.389199256896973 -5.028890132904053 -20.435001373291016 1.3855003118515015 31.41830062866211 -4.924560070037842 -2.8955640107852787e-09 -3.014287930369619e-09 -2.904247065060872e-09 -5.07056707732545e-09 -4.79991468793628e-09 -4.9355080022905895e-09 -2.8955640107852787e-09 -3.0143132434545805e-09 -2.904247065060872e-09 -7.7309088706970215 5.474880218505859 -0.41731396317481995 -2.895551354242798e-09 -3.014287930369619e-09 -2.904247065060872e-09 -2.9055399894714355 0.9651829600334167 -0.10290198773145676 -2.8955640107852787e-09 -3.014287930369619e-09 -2.904247065060872e-09 -10.27859878540039 0.73180091381073 -0.025912299752235413 -2.895551354242798e-09 -3.014287930369619e-09 -2.9042723781458335e-09 -2.2216696739196777 -0.7334870100021362 0.2089199721813202 -0.0 0.0 -0.0 -17.071598052978516 -46.499202728271484 -26.306598663330078 -175.1859893798828 74.21160125732422 175.97898864746094 -3.9868297576904297 -12.924498558044434 -14.168899536132812 -0.0 0.0 -0.0 21.9534969329834 -59.42900085449219 39.674495697021484 5.783709526062012 80.88069915771484 -6.042210102081299 8.786198616027832 -16.06450080871582 20.329797744750977
0.05906048900559489 30.79648285431958 2.83671405936799 4.232499599456787 -4.327699661254883 9.66479778289795 -14.507898330688477 17.54410171508789 6.328019618988037 3.0662100315093994 -10.748899459838867 1.4282000064849854 -5.268529891967773 12.909600257873535 -2.9207897186279297 10.013599395751953 -35.00599670410156 -2.4930100440979004 -0.0 0.0 -0.0 -0.0 0.0 -0.0 7.633330816395056e-14 -1.908332704098764e-13 6.361109013662547e-15 -1.9834898710250854 5.85060977935791 94.51569366455078 -28.200698852539062 -32.12620162963867 70.76509094238281 -0.2578289806842804 -14.4100980758667 -2.068579912185669 -1.48939000021997e-10 6.91134482977418e-10 1.210442746035767e-09 -2.7539784341890083e-10 1.1829754953396332e-09 2.0925885468869865e-09 -1.48939000021997e-10 6.91134482977418e-10 1.2104299784709838e-09 7.7309088706970215 5.474880218505859 0.41731396317481995 -1.48939000021997e-10 6.91134482977418e-10 1.210442746035767e-09 2.9055399894714355 0.9651829600334167 0.10290198773145676 -1.48939000021997e-10 6.91134482977418e-10 1.210442746035767e-09 10.27859878540039 0.73180091381073 0.025912299752235413 -1.4895172595341677e-10 6.91134482977418e-10 1.210442746035767e-09 2.2216696739196777 -0.7334870100021362 -0.2089199721813202 7.633330816395056e-14 -1.908332704098764e-13 6.361109013662547e-15 -26.6112003326416 25.48579978942871 -83.69369506835938 11.400598526000977 -5.035979747772217 -20.45779800415039 1.479140043258667 32.32429885864258 -5.101829528808594 -1.2873485610853663e-09 -1.2977171559569456e-09 -1.51117052205052e-09 -2.2598347637625693e-09 -2.0477937123786205e-09 -2.57369836553778e-09 -1.2873485610853663e-09 -1.2977171559569456e-09 -1.5111577544857369e-09 -7.7309088706970215 5.474880218505859 -0.41731396317481995 -1.2873485610853663e-09 -1.2977171559569456e-09 -1.51117052205052e-09 -2.9055399894714355 0.9651829600334167 -0.10290198773145676 -1.287361217627847e-09 -1.2977171559569456e-09 -1.51117052205052e-09 -10.27859878540039 0.73180091381073 -0.025912299752235413 -1.2873357935205831e-09 -1.2977171559569456e-09 -1.5111768503217604e-09 -2.2216696739196777 -0.7334870100021362 0.2089199721813202 -0.0 0.0 -0.0 -18.08839988708496 -53.74119567871094 -28.841598510742188 -174.9879913330078 74.3978042602539 175.46099853515625 -4.484979629516602 -12.849899291992188 -14.085700035095215 -0.0 0.0 -0.0 17.740798950195312 -57.353397369384766 35.89219665527344 5.803110122680664 81.15870666503906 -6.3289899826049805 9.376160621643066 -17.93360137939453 20.84830093383789
0.010187190461487656 30.70160128146435 4.360781766753713 5.128899097442627 -2.3892998695373535 8.755699157714844 -14.980499267578125 18.27789878845215 5.749630451202393 3.087209463119507 -10.99899959564209 1.2626099586486816 -5.365118980407715 12.709299087524414 -3.241489887237549 9.852548599243164 -34.27560043334961 -3.2299599647521973 -0.0 0.0 -0.0 -0.0 0.0 -0.0 -1.2722218027325094e-14 -3.816665408197528e-14 -6.361109013662547e-14 -3.6697895526885986 3.105059862136841 95.12709045410156 -28.369199752807617 -33.56959915161133 72.90409851074219 -0.20322397351264954 -12.625601768493652 -1.804979681968689 -6.934881141562599e-11 -3.1230501518209053e-10 8.269441717761311e-14 -1.1834207225280835e-10 -5.379208189992823e-10 -2.0991659745086405e-13 -6.934881141562599e-11 -3.1230501518209053e-10 6.997219915028802e-14 7.7309088706970215 5.474880218505859 0.41731396317481995 -6.934881141562599e-11 -3.1230501518209053e-10 8.269441717761311e-14 2.9055399894714355 0.9651829600334167 0.10290198773145676 -6.934881141562599e-11 -3.1230501518209053e-10 7.633330816395056e-14 10.27859878540039 0.73180091381073 0.025912299752235413 -6.936153040815185e-11 -3.1230501518209053e-10 7.633330816395056e-14 2.2216696739196777 -0.7334870100021362 -0.2089199721813202 -1.2722218027325094e-14 -3.816665408197528e-14 -6.361109013662547e-14 -24.806493759155273 26.440998077392578 -86.56969451904297 11.565398216247559 -5.141549587249756 -20.78569793701172 1.562619686126709 33.0952033996582 -5.255729675292969 2.8631352844143976e-10 -6.289101461831592e-10 1.4955603422350805e-10 4.988890411894431e-10 -1.1182448300672831e-09 2.49069209701247e-10 2.863007886322322e-10 -6.289101461831592e-10 1.4956876015492782e-10 -7.7309088706970215 5.474880218505859 -0.41731396317481995 2.8631352844143976e-10 -6.289101461831592e-10 1.4955603422350805e-10 -2.9055399894714355 0.9651829600334167 -0.10290198773145676 2.863007886322322e-10 -6.289101461831592e-10 1.4955603422350805e-10 -10.27859878540039 0.73180091381073 -0.025912299752235413 2.8631352844143976e-10 -6.289101461831592e-10 1.4954330829208828e-10 -2.2216696739196777 -0.7334870100021362 0.2089199721813202 -0.0 0.0 -0.0 -20.52069854736328 -60.122798919677734 -31.572998046875 -174.47097778320312 75.9323959350586 174.7349853515625 -4.666008949279785 -12.510300636291504 -13.465399742126465 -0.0 0.0 -0.0 13.97549819946289 -54.883399963378906 32.3052978515625 5.686229705810547 81.27599334716797 -6.498449325561523 9.893851280212402 -19.833999633789062 21.27610206604004
-0.09306553294364218 30.662064731453732 5.930686126607452 5.880198955535889 -0.10029999911785126 7.86120080947876 -15.336097717285156 19.0408992767334 5.098249435424805 3.162069320678711 -11.265000343322754 1.079390048980713 -5.422679424285889 12.528800010681152 -3.570859909057617 9.750109672546387 -33.490299224853516 -3.9687299728393555 -0.0 0.0 -0.0 -0.0 0.0 -0.0 -2.035554884372015e-13 1.3994439830057603e-13 -5.0888872109300376e-14 -5.293190002441406 1.0326999425888062 95.53119659423828 -28.42049789428711 -35.674705505371094 76.49559783935547 -0.190450981259346 -12.2912015914917 -1.7550798654556274 9.967857650394762e-10 -1.947517036526847e-09 1.793832790641936e-11 1.7233389160153934e-09 -3.369275969333785e-09 4.04820968413766e-11 9.967857650394762e-10 -1.947517036526847e-09 1.7925605444446546e-11 7.7309088706970215 5.474880218505859 0.41731396317481995 9.967857650394762e-10 -1.947517036526847e-09 1.793832790641936e-11 2.9055399894714355 0.9651829600334167 0.10290198773145676 9.967857650394762e-10 -1.947517036526847e-09 1.7931966675432953e-11 10.27859878540039 0.73180091381073 0.025912299752235413 9.967731084969955e-10 -1.947517036526847e-09 1.7944689137405767e-11 2.2216696739196777 -0.7334870100021362 -0.2089199721813202 -2.035554884372015e-13 1.3994439830057603e-13 -5.0888872109300376e-14 -22.78980255126953 27.63519859313965 -89.50569915771484 11.879999160766602 -5.343749523162842 -21.41939926147461 1.6334604024887085 33.731201171875 -5.384510040283203 1.8254220357505346e-09 -1.0078541334834767e-09 2.0779389320324526e-09 3.20560444855289e-09 -2.011293576131834e-09 3.532800940675429e-09 1.8254220357505346e-09 -1.0078541334834767e-09 2.0779389320324526e-09 -7.7309088706970215 5.474880218505859 -0.41731396317481995 1.8254346922930154e-09 -1.0078541334834767e-09 2.0779389320324526e-09 -2.9055399894714355 0.9651829600334167 -0.10290198773145676 1.8254220357505346e-09 -1.0078541334834767e-09 2.0779324927389098e-09 -10.27859878540039 0.73180091381073 -0.025912299752235413 1.8254346922930154e-09 -1.0078541334834767e-09 2.077919836196429e-09 -2.2216696739196777 -0.7334870100021362 0.2089199721813202 -0.0 0.0 -0.0 -24.1304988861084 -65.70159149169922 -34.24199676513672 -173.28099060058594 78.8125991821289 173.44699096679688 -4.5493903160095215 -11.897700309753418 -12.312999725341797 -0.0 0.0 -0.0 10.726898193359375 -52.0126953125 28.978897094726562 5.418989658355713 81.23271179199219 -6.536570072174072 10.329601287841797 -21.770198822021484 21.613000869750977
